<?xml version="1.0" encoding="UTF-8"?>
<svg width="80px" height="80px" viewBox="0 0 80 80" version="1.1" xmlns="http://www.w3.org/2000/svg" xmlns:xlink="http://www.w3.org/1999/xlink">
    <title>ic_calendar</title>
    <defs>
        <path d="M61.7903646,69.3880208 C67.9752604,69.3880208 71.0677083,66.2955729 71.0677083,60.2083333 L71.0677083,22.5455729 C71.0677083,16.4583333 67.9752604,13.3333333 61.7903646,13.3333333 L19.3098958,13.3333333 C13.125,13.3333333 10,16.4257812 10,22.5455729 L10,60.2083333 C10,66.2955729 13.125,69.3880208 19.3098958,69.3880208 L61.7903646,69.3880208 Z M62.0833333,65.15625 L18.9518229,65.15625 C15.9244792,65.15625 14.2643229,63.5286458 14.2643229,60.4036458 L14.2643229,31.9205729 C14.2643229,28.7955729 15.9244792,27.1679687 18.9518229,27.1679687 L62.0833333,27.1679687 C65.1106771,27.1679687 66.8359375,28.7955729 66.8359375,31.9205729 L66.8359375,60.4036458 C66.8359375,63.5286458 65.1106771,65.15625 62.0833333,65.15625 Z M36.2695312,38.1380208 C37.2786458,38.1380208 37.5716146,37.8776042 37.5716146,36.8684896 L37.5716146,35.078125 C37.5716146,34.0690104 37.2786458,33.7760417 36.2695312,33.7760417 L34.4466146,33.7760417 C33.4375,33.7760417 33.1445312,34.0690104 33.1445312,35.078125 L33.1445312,36.8684896 C33.1445312,37.8776042 33.4375,38.1380208 34.4466146,38.1380208 L36.2695312,38.1380208 Z M46.6210938,38.1380208 C47.6302083,38.1380208 47.9231771,37.8776042 47.9231771,36.8684896 L47.9231771,35.078125 C47.9231771,34.0690104 47.6302083,33.7760417 46.6210938,33.7760417 L44.7981771,33.7760417 C43.7890625,33.7760417 43.4960938,34.0690104 43.4960938,35.078125 L43.4960938,36.8684896 C43.4960938,37.8776042 43.7890625,38.1380208 44.7981771,38.1380208 L46.6210938,38.1380208 Z M56.9726562,38.1380208 C57.9817708,38.1380208 58.2747396,37.8776042 58.2747396,36.8684896 L58.2747396,35.078125 C58.2747396,34.0690104 57.9817708,33.7760417 56.9726562,33.7760417 L55.1497396,33.7760417 C54.140625,33.7760417 53.8476562,34.0690104 53.8476562,35.078125 L53.8476562,36.8684896 C53.8476562,37.8776042 54.140625,38.1380208 55.1497396,38.1380208 L56.9726562,38.1380208 Z M25.9179687,48.3268229 C26.9270833,48.3268229 27.2200521,48.0664062 27.2200521,47.0572917 L27.2200521,45.2669271 C27.2200521,44.2578125 26.9270833,43.9973958 25.9179687,43.9973958 L24.1276042,43.9973958 C23.0859375,43.9973958 22.7929687,44.2578125 22.7929687,45.2669271 L22.7929687,47.0572917 C22.7929687,48.0664062 23.0859375,48.3268229 24.1276042,48.3268229 L25.9179687,48.3268229 Z M36.2695312,48.3268229 C37.2786458,48.3268229 37.5716146,48.0664062 37.5716146,47.0572917 L37.5716146,45.2669271 C37.5716146,44.2578125 37.2786458,43.9973958 36.2695312,43.9973958 L34.4466146,43.9973958 C33.4375,43.9973958 33.1445312,44.2578125 33.1445312,45.2669271 L33.1445312,47.0572917 C33.1445312,48.0664062 33.4375,48.3268229 34.4466146,48.3268229 L36.2695312,48.3268229 Z M46.6210938,48.3268229 C47.6302083,48.3268229 47.9231771,48.0664062 47.9231771,47.0572917 L47.9231771,45.2669271 C47.9231771,44.2578125 47.6302083,43.9973958 46.6210938,43.9973958 L44.7981771,43.9973958 C43.7890625,43.9973958 43.4960938,44.2578125 43.4960938,45.2669271 L43.4960938,47.0572917 C43.4960938,48.0664062 43.7890625,48.3268229 44.7981771,48.3268229 L46.6210938,48.3268229 Z M56.9726562,48.3268229 C57.9817708,48.3268229 58.2747396,48.0664062 58.2747396,47.0572917 L58.2747396,45.2669271 C58.2747396,44.2578125 57.9817708,43.9973958 56.9726562,43.9973958 L55.1497396,43.9973958 C54.140625,43.9973958 53.8476562,44.2578125 53.8476562,45.2669271 L53.8476562,47.0572917 C53.8476562,48.0664062 54.140625,48.3268229 55.1497396,48.3268229 L56.9726562,48.3268229 Z M25.9179687,58.515625 C26.9270833,58.515625 27.2200521,58.2552083 27.2200521,57.2460938 L27.2200521,55.4557292 C27.2200521,54.4466146 26.9270833,54.1861979 25.9179687,54.1861979 L24.1276042,54.1861979 C23.0859375,54.1861979 22.7929687,54.4466146 22.7929687,55.4557292 L22.7929687,57.2460938 C22.7929687,58.2552083 23.0859375,58.515625 24.1276042,58.515625 L25.9179687,58.515625 Z M36.2695312,58.515625 C37.2786458,58.515625 37.5716146,58.2552083 37.5716146,57.2460938 L37.5716146,55.4557292 C37.5716146,54.4466146 37.2786458,54.1861979 36.2695312,54.1861979 L34.4466146,54.1861979 C33.4375,54.1861979 33.1445312,54.4466146 33.1445312,55.4557292 L33.1445312,57.2460938 C33.1445312,58.2552083 33.4375,58.515625 34.4466146,58.515625 L36.2695312,58.515625 Z M46.6210938,58.515625 C47.6302083,58.515625 47.9231771,58.2552083 47.9231771,57.2460938 L47.9231771,55.4557292 C47.9231771,54.4466146 47.6302083,54.1861979 46.6210938,54.1861979 L44.7981771,54.1861979 C43.7890625,54.1861979 43.4960938,54.4466146 43.4960938,55.4557292 L43.4960938,57.2460938 C43.4960938,58.2552083 43.7890625,58.515625 44.7981771,58.515625 L46.6210938,58.515625 Z" id="path-1"></path>
    </defs>
    <g id="Page-1" stroke="none" stroke-width="1" fill="none" fill-rule="evenodd">
        <g id="icons" transform="translate(-260.000000, -70.000000)">
            <g id="icons/ic_calendar" transform="translate(260.000000, 70.000000)">
                <rect id="Size" x="0" y="0" width="80" height="80"></rect>
                <mask id="mask-2" fill="white">
                    <use xlink:href="#path-1"></use>
                </mask>
                <use id="icon" fill="#FFFFFF" fill-rule="nonzero" xlink:href="#path-1"></use>
                <g id="Group" mask="url(#mask-2)" fill="#B1BAC1">
                    <g id="color">
                        <rect id="Rectangle" x="0" y="0" width="80" height="80"></rect>
                    </g>
                </g>
            </g>
        </g>
    </g>
</svg>