<?xml version="1.0" encoding="UTF-8"?>
<svg width="80px" height="80px" viewBox="0 0 80 80" version="1.1" xmlns="http://www.w3.org/2000/svg" xmlns:xlink="http://www.w3.org/1999/xlink">
    <title>ic_issue</title>
    <g id="Page-1" stroke="none" stroke-width="1" fill="none" fill-rule="evenodd">
        <g id="icons" transform="translate(-620.000000, -70.000000)">
            <g id="ic_issue" transform="translate(620.000000, 70.000000)">
                <rect id="Rectangle" x="0" y="0" width="80" height="80"></rect>
                <g id="Group-5" transform="translate(3.333333, 3.333333)">
                    <circle id="Oval" fill="#F7F8FA" cx="36.6666667" cy="36.6666667" r="36.6666667"></circle>
                    <path d="M36.6666667,11.6666667 C50.4737854,11.6666667 61.6666667,22.8595479 61.6666667,36.6666667 C61.6666667,50.4737854 50.4737854,61.6666667 36.6666667,61.6666667 C22.8595479,61.6666667 11.6666667,50.4737854 11.6666667,36.6666667 C11.6666667,22.8595479 22.8595479,11.6666667 36.6666667,11.6666667 Z M36.6666667,15.6140351 C25.0396193,15.6140351 15.6140351,25.0396193 15.6140351,36.6666667 C15.6140351,48.293714 25.0396193,57.7192982 36.6666667,57.7192982 C48.293714,57.7192982 57.7192982,48.293714 57.7192982,36.6666667 C57.7192982,25.0396193 48.293714,15.6140351 36.6666667,15.6140351 Z M35.5910088,44.6502193 C36.3508772,44.6502193 37.002193,44.8673246 37.5087719,45.3739035 C38.0153509,45.8442982 38.2686404,46.4594298 38.2686404,47.2192982 C38.2686404,47.9791667 37.9791667,48.5942982 37.4725877,49.1008772 C36.9660088,49.5712719 36.314693,49.8245614 35.5910088,49.8245614 C34.8673246,49.8245614 34.2160088,49.5712719 33.7094298,49.064693 C33.2028509,48.558114 32.9495614,47.9429825 32.9495614,47.2192982 C32.9495614,46.4594298 33.2028509,45.8442982 33.7094298,45.3739035 C34.2160088,44.8673246 34.8673246,44.6502193 35.5910088,44.6502193 Z M36.2423246,23.4824561 C38.558114,23.4824561 40.439693,24.0975877 41.8870614,25.4002193 C43.3344298,26.6666667 44.058114,28.4035088 44.058114,30.5745614 C44.058114,32.3475877 43.5877193,33.8311404 42.683114,34.9890351 C42.3574561,35.3870614 41.3442982,36.3278509 39.6436404,37.8114035 C38.9561404,38.3903509 38.4495614,39.0416667 38.1239035,39.6929825 C37.7258772,40.4166667 37.5449561,41.2127193 37.5449561,42.0811404 L37.5449561,42.0811404 L37.5449561,42.6962719 L33.6732456,42.6962719 L33.6732456,42.0811404 C33.6732456,40.7423246 33.8903509,39.5844298 34.3969298,38.6436404 C34.8673246,37.6304825 36.2423246,36.1469298 38.4857456,34.1567982 L38.4857456,34.1567982 L39.1008772,33.4692982 C39.752193,32.6370614 40.1140351,31.7686404 40.1140351,30.8278509 C40.1140351,29.5614035 39.752193,28.5844298 39.064693,27.8607456 C38.3410088,27.1370614 37.2916667,26.7752193 35.9890351,26.7752193 C34.3607456,26.7752193 33.1666667,27.2817982 32.4429825,28.3311404 C31.7916667,29.1995614 31.4660088,30.4298246 31.4660088,32.0219298 L31.4660088,32.0219298 L27.6666667,32.0219298 C27.6666667,29.3804825 28.4265351,27.3179825 29.9462719,25.7982456 C31.4660088,24.2423246 33.564693,23.4824561 36.2423246,23.4824561 Z" id="Combined-Shape" fill="#555A6A" fill-rule="nonzero"></path>
                </g>
            </g>
        </g>
    </g>
</svg>