<?xml version="1.0" encoding="UTF-8"?>
<svg width="80px" height="80px" viewBox="0 0 80 80" version="1.1" xmlns="http://www.w3.org/2000/svg" xmlns:xlink="http://www.w3.org/1999/xlink">
    <title>ic_link</title>
    <defs>
        <path d="M39.1198777,48.6446173 L42.1276902,45.5912318 C39.3933152,45.3633673 37.5476121,44.5202683 36.1576381,43.1302943 C32.4434454,39.4161016 32.4434454,34.1296433 36.1576381,30.4382371 L43.2214402,23.374435 C46.9584193,19.6602423 52.1993048,19.6374558 55.9134975,23.3516485 C59.6504766,27.1114141 59.6276902,32.3522996 55.9362839,36.0437058 L51.9030808,40.0769089 C52.5183152,41.5352423 52.7006068,43.2442266 52.4271693,44.7481329 L58.6934454,38.4818568 C63.9115443,33.2865443 63.9343308,25.8809454 58.6706589,20.6172735 C53.3842006,15.3308152 46.0013881,15.3763881 40.8060756,20.5944871 L33.3776902,28.0228725 C28.1823777,33.218185 28.1368048,40.6237839 33.4004766,45.8874558 C34.7448777,47.2090704 36.4538621,48.1661016 39.1198777,48.6446173 Z M38.4818568,58.7845912 L45.8874558,51.3562058 C51.1055548,46.1381068 51.1283412,38.7552943 45.8646693,33.468836 C44.5430548,32.1472214 42.8340704,31.1901902 40.1680548,30.734461 L37.1374558,33.76506 C39.8946173,34.015711 41.7403204,34.85881 43.1075079,36.2259975 C46.8444871,39.9401902 46.8217006,45.2266485 43.1302943,48.9180548 L36.0437058,55.9818568 C32.3295131,59.6960496 27.0886277,59.718836 23.374435,56.0046433 C19.6146693,52.2676641 19.6602423,47.0039923 23.3516485,43.312586 L27.3848516,39.2793829 C26.7696173,37.843836 26.5873256,36.1120652 26.8607631,34.6309454 L20.5944871,40.874435 C15.3763881,46.0925339 15.3308152,53.4753464 20.6172735,58.7618048 C25.8809454,64.0254766 33.2637579,63.9799037 38.4818568,58.7845912 Z" id="path-1"></path>
    </defs>
    <g id="Page-1" stroke="none" stroke-width="1" fill="none" fill-rule="evenodd">
        <g id="icons" transform="translate(-20.000000, -70.000000)">
            <g id="icons/ic_link" transform="translate(20.000000, 70.000000)">
                <rect id="Size" x="0" y="0" width="80" height="80"></rect>
                <mask id="mask-2" fill="white">
                    <use xlink:href="#path-1"></use>
                </mask>
                <use id="icon" fill="#647684" fill-rule="nonzero" xlink:href="#path-1"></use>
                <g id="Group" mask="url(#mask-2)" fill="#000000">
                    <g id="color">
                        <rect id="Rectangle" x="0" y="0" width="80" height="80"></rect>
                    </g>
                </g>
            </g>
        </g>
    </g>
</svg>