<?xml version="1.0" encoding="UTF-8"?>
<svg width="100px" height="100px" viewBox="0 0 100 100" version="1.1" xmlns="http://www.w3.org/2000/svg" xmlns:xlink="http://www.w3.org/1999/xlink">
    <title>ic_swap.green</title>
    <defs>
        <linearGradient x1="24.1932872%" y1="9.44928548%" x2="85.7016209%" y2="86.1925545%" id="linearGradient-1">
            <stop stop-color="#0075B1" offset="0%"></stop>
            <stop stop-color="#00B100" offset="100%"></stop>
        </linearGradient>
    </defs>
    <g id="Page-1" stroke="none" stroke-width="1" fill="none" fill-rule="evenodd">
        <g id="icons" transform="translate(-160.000000, -200.000000)">
            <g id="ic_swap.green" transform="translate(160.000000, 200.000000)">
                <rect id="Rectangle" x="0" y="0" width="100" height="100"></rect>
                <g id="NewSwap-Logo-Copy" transform="translate(2.857143, 1.904762)" fill="url(#linearGradient-1)" fill-rule="nonzero">
                    <path d="M47.6190476,0 C73.9183214,0 95.2380952,21.3197738 95.2380952,47.6190476 C95.2380952,73.9183214 73.9183214,95.2380952 47.6190476,95.2380952 C21.3197738,95.2380952 1.42108547e-14,73.9183214 1.42108547e-14,47.6190476 C1.42108547e-14,47.4901354 1.42108547e-14,47.3613429 0.00153482871,47.232672 L1.42108547e-14,46.8358396 C1.42108547e-14,71.3183872 19.8470263,91.1654134 44.3295738,91.1654134 C68.8121217,91.1654134 88.6591479,71.3183872 88.6591479,46.8358396 C88.6591479,22.353292 68.8121217,2.50626566 44.3295738,2.50626566 C27.1526708,2.50626566 12.2575547,12.2757572 4.8975831,26.5613827 C12.6689781,10.8241037 28.8799604,0 47.6190476,0 Z M43.8596491,5.63909774 C58.8627911,5.63909774 71.9711351,13.751692 79.0372884,25.8294875 C72.5793488,15.9365984 61.4109717,9.39849625 48.715539,9.39849625 C28.7315512,9.39849625 12.5313283,25.5987191 12.5313283,45.5827068 C12.5313283,65.5666943 28.7315512,81.7669173 48.715539,81.7669173 C65.4923875,81.7669173 79.6024967,70.3492479 83.6993333,54.8604426 C79.7921009,73.2758182 63.4394315,87.0927318 43.8596491,87.0927318 C21.3668492,87.0927318 3.13283208,68.8587149 3.13283208,46.3659149 C3.13283208,23.8731148 21.3668492,5.63909774 43.8596491,5.63909774 Z M61.8471586,22.2375225 L63.1120324,25.6485323 L62.8783125,25.7354671 C62.7441149,25.7853835 62.6126295,25.8360357 62.4838286,25.8874593 L62.2297991,25.9913451 C58.8902494,27.3904786 57.4468598,29.3547636 57.3781613,32.5532738 L57.3762286,32.6737977 L57.3755702,32.7973823 L57.3755012,35.1852601 L57.4998824,35.1997506 C61.2926821,35.649215 64.7587866,36.4350752 67.728856,37.5150141 L68.0058414,37.6171186 L68.2718717,37.7178606 C68.387439,37.7615534 68.5019702,37.8056087 68.6154607,37.8500226 L68.9528048,37.9843363 C69.1756125,38.074591 69.3942378,38.1662652 69.608642,38.2593287 L69.9270771,38.3999622 C70.0847083,38.4707962 70.2399536,38.5424031 70.3927976,38.6147704 L70.6952795,38.760515 C74.9349488,40.8394842 77.2383714,43.5220083 77.2383714,46.518972 C77.2383714,49.6922276 74.6559875,52.5129628 69.926703,54.6381229 L69.6082417,54.7787661 C69.1793982,54.9649063 68.7336685,55.1454902 68.2713574,55.3202771 C65.2182405,56.4669015 61.6924167,57.305789 57.8743664,57.7911699 L57.5155735,57.8356372 L57.3755012,57.8519268 L57.3755702,60.2405616 C57.3755702,65.2149896 54.9348446,68.6014107 49.9597114,70.5428238 L49.8081739,70.6012122 L49.6535301,70.6592935 L49.2652876,70.8013905 L48.0000545,67.3894116 L48.2337745,67.3024768 C52.036044,65.8881798 53.6609336,63.8830872 53.7339256,60.4846702 L53.7358583,60.3641461 L53.736517,60.2405616 L53.7365131,58.1665101 L53.4346807,58.1890054 C52.2927327,58.2686372 51.1507762,58.3184074 50.0088151,58.3383155 L49.4378342,58.345781 L48.8668527,58.3482693 C47.4479976,58.3482693 46.0000765,58.3022301 44.6314341,58.2129342 L44.1783048,58.1815708 L43.9969298,58.167403 L43.9971887,60.2405616 C43.9971887,65.1938211 41.5140727,68.5924699 36.5145463,70.5423185 L36.3622752,70.6009616 L36.2069019,70.659297 L35.8186454,70.8013905 L34.553416,67.3894116 L34.7871359,67.3024768 C38.5894056,65.8881798 40.214295,63.8830872 40.2872871,60.4846702 L40.2892199,60.3641461 L40.2897869,57.852522 L40.1655659,57.8381935 C36.3727663,57.3887289 32.9066619,56.6028688 29.9365925,55.5229298 L29.6596069,55.4208253 L29.2222256,55.254722 L28.8840532,55.1222512 L28.5519499,54.9874744 C23.3418776,52.8354185 20.4270771,49.8279749 20.4270771,46.518972 C20.4270771,43.836938 22.3419638,41.3530143 25.8420867,39.3620137 L26.1180262,39.2078736 C26.6297762,38.9271315 27.1737033,38.6566052 27.7488463,38.3971544 L28.0656507,38.2567393 C28.4921689,38.0709975 28.9351055,37.8911965 29.394091,37.7176668 C32.447208,36.5710425 35.9730318,35.7321549 39.7910822,35.2467741 L40.149875,35.2023067 L40.2897869,35.1855577 L40.2898782,32.7973823 C40.2898782,27.8117491 42.7419436,24.4314891 47.7696908,22.4944968 L47.9228353,22.4362417 L48.0791282,22.3782941 L48.4687782,22.2375225 L49.733651,25.6485323 L49.499931,25.7354671 C45.6976613,27.1497641 44.0727719,29.1548567 43.9997799,32.5532738 L43.997847,32.6737977 L43.9971887,32.7973823 L43.9969298,34.871272 L44.2990249,34.8489385 C45.4409726,34.7693068 46.5829292,34.7195366 47.7248903,34.6996285 L48.2958712,34.6921629 L48.8668527,34.6896744 C50.2857079,34.6896744 51.7336289,34.7357138 53.1022714,34.8250096 L53.5554006,34.8563732 L53.7365131,34.8703792 L53.736517,32.7973823 C53.736517,27.7730774 56.226256,24.3689293 61.301989,22.437458 L61.4565908,22.3793792 L61.8471586,22.2375225 Z M48.8668527,38.334829 C47.4202583,38.334829 46.0194327,38.3794605 44.6651003,38.4686516 L44.2153791,38.5000322 L43.9969298,38.5168077 L43.9969298,54.5209744 L44.1416992,54.5323473 C45.5218682,54.6353298 47.0038843,54.6930033 48.4680633,54.7019003 L48.8668527,54.7031149 C50.3134471,54.7031149 51.7142726,54.6584833 53.0686054,54.5692923 L53.5183265,54.5379116 L53.7365131,54.5206768 L53.7365131,38.5168077 L53.5920062,38.5055966 C52.2118372,38.4026143 50.7298211,38.3449407 49.2656421,38.3360436 L48.8668527,38.334829 Z M40.2897869,38.8376411 L40.2467827,38.8435486 C36.6892751,39.3168849 33.4170468,40.101856 30.7308061,41.1298338 L30.5792192,41.1878628 L30.2807141,41.3050584 C30.0837958,41.3836849 29.8910614,41.4632905 29.7025919,41.5437987 L29.4230965,41.6652283 C29.3770504,41.6855762 29.3312735,41.7059781 29.2857669,41.7264328 L29.0159818,41.8497854 C28.9271417,41.8911078 28.8393932,41.9326319 28.7527464,41.9743481 L28.4961214,42.1000633 L28.2461679,42.2268738 C27.8351718,42.439105 27.4522268,42.6556597 27.098601,42.87534 L26.8899539,43.0075136 C26.8557691,43.0296019 26.8218801,43.051719 26.7882881,43.0738638 L26.59031,43.2070549 C25.0027604,44.2973361 24.1343875,45.4482826 24.1343875,46.518972 C24.1343875,47.5022581 24.866772,48.553233 26.2157773,49.5626686 L26.3992886,49.6970042 C26.4616702,49.7416943 26.5252598,49.7862928 26.590047,49.83079 L26.7879915,49.9639685 C26.8215777,49.986111 26.8554608,50.0082259 26.8896395,50.0303119 L27.0982489,50.1624714 C27.2750293,50.2722992 27.4591364,50.3813446 27.6504114,50.4894575 L27.883372,50.618736 C27.9621656,50.6616732 28.042096,50.7044517 28.1231528,50.7470618 L28.3696929,50.8743775 L28.6229314,51.0006255 C28.7084538,51.0425238 28.7950824,51.0842346 28.8828071,51.1257483 L29.1492593,51.2496884 C29.1942126,51.2702433 29.2394374,51.2907465 29.2849324,51.3111969 L29.5611348,51.4332549 L29.7016487,51.4937901 L29.7016487,51.4937901 L29.987464,51.6138367 L30.2796118,51.7324704 C30.3288274,51.7521218 30.3783043,51.7717118 30.4280413,51.7912394 L30.7295734,51.907646 C33.4248195,52.9145131 36.5180368,53.6729342 39.8786106,54.1440521 L40.2897869,54.1998435 L40.2897869,38.8376411 Z M57.3755012,38.8379387 L57.3755012,54.1998435 L57.4186658,54.1943952 C60.8683699,53.7354027 64.0498229,52.9833759 66.6888327,52.0008913 L67.0862292,51.8500811 L67.3847342,51.7328855 L67.6769637,51.614221 C67.7251423,51.5943244 67.7730568,51.574369 67.820706,51.554356 L68.1034077,51.4335961 L68.3796815,51.3115111 C68.4706946,51.2706017 68.5606265,51.229481 68.6494667,51.1881585 L68.9127021,51.0635959 C69.4759062,50.7924407 69.9925613,50.5131692 70.4598815,50.2284131 L70.6720545,50.0966073 L70.8771604,49.9640801 C72.5903536,48.8346963 73.531061,47.6333629 73.531061,46.518972 C73.531061,45.4264318 72.6268824,44.2503253 70.9773238,43.1404852 L70.7758089,43.007632 C70.7074515,42.9634601 70.6379116,42.9194037 70.5671994,42.8754726 L70.3515565,42.7440643 C70.2785098,42.7003932 70.2043012,42.6568568 70.1289405,42.6134649 L69.8994131,42.4837317 C69.7441045,42.3975445 69.5842286,42.3119732 69.4198667,42.2270944 L69.1699696,42.1003054 C69.1277628,42.0792637 69.0852783,42.0582676 69.042517,42.0373185 L68.7826414,41.9121956 L68.6502333,41.8500742 L68.6502333,41.8500742 L68.3805161,41.7267471 C68.3350211,41.7062967 68.2892557,41.6858992 68.2432217,41.6655558 L67.9637997,41.5441538 C67.6340661,41.4032977 67.2912795,41.2652087 66.935875,41.130298 C64.1490259,40.0892105 60.9374619,39.314 57.4446878,38.8470449 L57.3755012,38.8379387 Z" id="Combined-Shape"></path>
                </g>
            </g>
        </g>
    </g>
</svg>