<?xml version="1.0" encoding="UTF-8"?>
<svg width="140px" height="40px" viewBox="0 0 140 40" version="1.1" xmlns="http://www.w3.org/2000/svg" xmlns:xlink="http://www.w3.org/1999/xlink">
    <title>logo_newswapmining_regular</title>
    <g id="Page-1" stroke="none" stroke-width="1" fill="none" fill-rule="evenodd">
        <g id="icons" transform="translate(-170.000000, -442.000000)">
            <g id="Group-11" transform="translate(170.000000, 442.000000)">
                <rect id="Rectangle" x="0" y="0" width="140" height="40"></rect>
                <g id="Group-3-Copy" transform="translate(1.000000, 1.000000)" fill="#000000" fill-rule="nonzero">
                    <path d="M0,18.7594673 C0,28.5656233 8.00646827,36.5150834 17.8829473,36.5150834 C20.5988613,36.5150834 23.1733679,35.9139577 25.4788647,34.8384002 C25.9596737,35.4433827 26.517663,35.985835 27.1377574,36.4509863 C24.7211097,37.5400752 22.0368384,38.1463415 19.2099506,38.1463415 C8.60058782,38.1463415 0,29.6069921 0,19.0731707 L0,18.7594673 Z M32.6696812,22.2713114 C36.6063416,22.2713114 39.804878,25.4470734 39.804878,29.3557039 C39.804878,33.2643342 36.6063416,36.4400963 32.6696812,36.4400963 C28.7330207,36.4400963 25.5344842,33.2643342 25.5344842,29.3557039 C25.5344842,25.4470736 28.7330209,22.2713114 32.6696812,22.2713114 Z M17.6933755,2.25866495 C23.7457774,2.25866495 29.0338009,5.50805575 31.8843505,10.3456547 C29.2791598,6.38319071 24.7737363,3.7644416 19.652285,3.7644416 C11.5905652,3.7644416 5.05525015,10.2532235 5.05525015,18.2575418 C5.05525015,26.2618599 11.5905652,32.7506418 19.652285,32.7506418 C21.1631273,32.7506418 22.6203589,32.5227409 23.9910097,32.0996742 C24.1413587,32.5505854 24.3269603,32.9858939 24.5443495,33.4022032 C22.4590468,34.3534524 20.1385929,34.8838254 17.6933755,34.8838254 C8.61957844,34.8838254 1.26381254,27.5804345 1.26381254,18.5712452 C1.26381254,9.56205589 8.61957844,2.25866495 17.6933755,2.25866495 Z M31.6931973,25.3957709 L31.6198212,25.4556818 L31.09962,25.9747823 C30.9351153,26.1390262 30.9145522,26.3916965 31.0379307,26.5780471 L31.09962,26.6534 L32.1022597,27.6529649 C32.2489131,27.7993666 32.3149827,28.0072573 32.2795135,28.2107015 C32.2644854,28.3050921 32.2269154,28.3973309 32.1681037,28.478542 L32.1022597,28.5557484 L28.9513816,31.6990414 C28.7889657,31.8612154 28.6983781,32.0809777 28.6996263,32.3096605 C28.7009818,32.5383434 28.7940657,32.7570752 28.9583176,32.9174165 C29.0184697,32.9725992 29.1054135,32.9812367 29.1739094,32.9447778 L29.2211155,32.9090007 L32.8436428,29.2951892 C33.0782631,29.0598773 33.4562695,29.0448401 33.7091036,29.260761 L33.7295263,29.2787402 C34.2438472,29.6967002 34.7359405,30.1409127 35.2038151,30.6095807 C35.6231847,31.0280418 36.0243002,31.4641496 36.406058,31.916704 C35.8407726,29.8617241 34.5649309,27.6847153 32.6690864,25.7934606 C32.6038365,25.7284295 32.5620491,25.6878383 32.5278828,25.6559037 L32.4324056,25.5702866 C32.3976398,25.5398821 32.3546537,25.5023511 32.2876055,25.4419106 C32.1211354,25.2896164 31.8746768,25.275233 31.6931973,25.3957709 Z M24.9496981,8.90694134 L25.4599595,10.2731755 L25.3656748,10.3079961 C25.3115382,10.3279894 25.2584958,10.3482775 25.2065364,10.3688745 L25.1040587,10.4104846 C23.7568544,10.9708888 23.1745781,11.7576568 23.1468645,13.0387771 L23.1460848,13.0870514 L23.1458192,13.1365515 L23.1457914,14.0929839 L23.1959679,14.0987879 C24.7260173,14.2788148 26.1242749,14.5935806 27.3224275,15.0261356 L27.4341659,15.0670322 L27.5414849,15.1073831 C27.5881058,15.1248837 27.6343087,15.1425294 27.6800918,15.1603188 L27.8161794,15.2141164 C27.906062,15.2502667 27.9942574,15.2869855 28.08075,15.3242609 L28.2092099,15.3805897 L28.3970854,15.4666283 L28.3970854,15.4666283 L28.5191093,15.5250043 C30.2294299,16.3577075 31.1586512,17.4321566 31.1586512,18.6325502 C31.1586512,19.9035552 30.1168944,21.0333628 28.2090587,21.8845672 L28.0805885,21.9408999 C27.9075892,22.0154559 27.7277778,22.0877863 27.5412774,22.1577949 C26.3096227,22.6170599 24.8872738,22.953065 23.3470381,23.1474779 L23.2022978,23.1652886 L23.1457914,23.1718132 L23.1458192,24.1285488 C23.1458192,26.1209892 22.1612086,27.4773748 20.1541953,28.2549818 L20.0930637,28.2783685 L20.030679,28.3016321 L19.8740585,28.3585472 L19.3636522,26.9919248 L19.4579369,26.9571042 C20.9918065,26.3906265 21.6473015,25.5875136 21.6767471,24.2263233 L21.6775268,24.178049 L21.677791,23.2978153 L21.556029,23.3068255 C21.095357,23.338721 20.6346815,23.3586558 20.1740042,23.3666297 L19.9436654,23.3696199 L19.7133263,23.3706166 C19.1409475,23.3706166 18.5568431,23.3521761 18.0047205,23.3164099 L17.8219241,23.3038477 L17.7487558,23.298173 L17.7488602,24.1285488 C17.7488602,26.1125105 16.747149,27.4737937 14.7302952,28.2547794 L14.6688677,28.2782681 L14.6061887,28.3016336 L14.4495625,28.3585472 L13.9391577,26.9919248 L14.0334424,26.9571042 C15.567312,26.3906265 16.222807,25.5875136 16.2522526,24.2263233 L16.2530324,24.178049 L16.2532611,23.1720516 L16.2031492,23.1663125 C14.6730999,22.9862855 13.2748423,22.6715198 12.0766897,22.2389647 L11.9649512,22.1980681 L11.7885077,22.1315377 L11.6520859,22.0784783 L11.5181125,22.0244952 C9.41632262,21.1625181 8.24046598,19.9579269 8.24046598,18.6325502 C8.24046598,17.5582975 9.01294842,16.5633951 10.4249294,15.7659266 L10.5362458,15.7041878 C10.7426904,15.5917403 10.9621154,15.4833847 11.1941333,15.3794651 L11.321935,15.3232237 C11.4939963,15.2488274 11.6726809,15.1768105 11.8578397,15.1073055 C13.0894945,14.6480405 14.5118434,14.3120353 16.0520792,14.1176225 L16.1968194,14.0998117 L16.2532611,14.0931032 L16.253298,13.1365515 C16.253298,11.139623 17.2424831,9.78570523 19.2707214,9.00986896 L19.3325012,8.98653564 L19.3955512,8.96332551 L19.5527395,8.90694134 L20.0630005,10.2731755 L19.9687158,10.3079961 C18.4348461,10.8744738 17.7793512,11.6775867 17.7499055,13.0387771 L17.7491258,13.0870514 L17.7488602,13.1365515 L17.7487558,13.9672202 L17.8706237,13.9582748 C18.3312956,13.9263794 18.7919711,13.9064446 19.2526484,13.8984707 L19.4829873,13.8954805 L19.7133263,13.8944837 C20.2857052,13.8944837 20.8698095,13.9129242 21.4219322,13.9486904 L21.6047286,13.9612527 L21.677791,13.9668626 L21.6777925,13.1365515 C21.6777925,11.1241336 22.6821755,9.76064773 24.7297717,8.98702281 L24.7921395,8.96376012 L24.9496981,8.90694134 Z M19.2099506,0 C29.8193133,0 38.4199011,8.5393494 38.4199011,19.0731707 C38.4199011,20.1261381 38.333963,21.1591766 38.1686706,22.1657488 C37.415496,21.5821629 36.5670483,21.1141932 35.6503802,20.7886422 C35.7266771,20.1229894 35.7658948,19.4457756 35.7658948,18.7594673 C35.7658948,8.95331124 27.7594266,1.00385109 17.8829473,1.00385109 C10.9536308,1.00385109 4.94480742,4.91688986 1.97572891,10.6388055 C5.11077929,4.33544954 11.6504348,0 19.2099506,0 Z M19.8742015,15.354988 L19.7133263,15.3545015 C19.1297572,15.3545015 18.5646516,15.372378 18.0183017,15.4081023 L17.8368802,15.4206714 L17.7487558,15.4273907 L17.7487558,21.8376449 L17.8071571,21.8422002 C18.3639296,21.8834484 18.9617882,21.9065488 19.5524511,21.9101124 L19.7133263,21.9105988 C20.2968955,21.9105988 20.862001,21.8927223 21.408351,21.856998 L21.5897725,21.8444289 L21.677791,21.8375257 L21.677791,15.4273907 L21.6194956,15.4229002 C21.062723,15.381652 20.4648645,15.3585516 19.8742015,15.354988 Z M16.2532611,15.5558961 L16.2359128,15.5582623 C14.8007824,15.7478508 13.4807361,16.0622605 12.3970826,16.4740032 L12.3359311,16.4972459 L12.2155114,16.5441871 C12.1360728,16.5756798 12.058322,16.6075648 11.9822918,16.6398113 L11.8695408,16.6884483 C11.8509654,16.6965983 11.8324986,16.7047701 11.8141408,16.7129629 L11.7053071,16.7623701 L11.6518795,16.7872569 L11.6518795,16.7872569 L11.4955908,16.8626156 L11.3947573,16.9134078 C11.2289578,16.9984142 11.0744743,17.0851523 10.9318185,17.1731423 L10.8476484,17.2260827 C10.8338579,17.2349298 10.8201868,17.2437885 10.8066355,17.2526583 L10.7267694,17.3060062 C10.0863376,17.7427038 9.73602822,18.2036999 9.73602822,18.6325502 C9.73602822,19.0263923 10.0314787,19.4473462 10.5756795,19.851662 L10.6497096,19.9054684 C10.6748749,19.9233684 10.7005275,19.9412317 10.7266632,19.9590545 L10.8065158,20.0123973 C10.8200648,20.0212662 10.8337336,20.0301241 10.8475216,20.0389703 L10.9316765,20.091905 C11.0029912,20.1358951 11.0772617,20.1795717 11.1544238,20.2228749 L11.2484021,20.2746557 C11.2801882,20.2918536 11.3124328,20.3089879 11.3451319,20.3260548 L11.4445884,20.3770494 L11.546747,20.4276164 C11.5812475,20.4443982 11.6161943,20.4611049 11.6515832,20.4777326 L11.7590724,20.5273752 C11.777207,20.5356082 11.7954511,20.5438205 11.8138042,20.5520116 L11.9252267,20.6009003 C11.9440137,20.6090048 11.9629088,20.6170871 11.9819113,20.6251468 L12.0972117,20.6732299 L12.2150668,20.720747 C12.2349208,20.7286181 12.2548802,20.7364647 12.2749446,20.7442862 L12.3965853,20.7909113 C13.4838717,21.1941984 14.7317033,21.4979738 16.0873889,21.6866737 L16.2532611,21.7090202 L16.2532611,15.5558961 Z M23.1457914,15.5560153 L23.1457914,21.7090202 L23.1632043,21.706838 C24.5548459,21.5229947 25.8382726,21.2217805 26.9028728,20.8282594 L27.0631861,20.7678544 L27.1836057,20.7209133 L27.3014937,20.6733839 L27.3594806,20.6494057 L27.3594806,20.6494057 L27.473525,20.601037 L27.5849763,20.5521375 C27.6216918,20.5357517 27.6579712,20.5192814 27.6938101,20.5027302 L27.8000016,20.4528383 C28.0272032,20.3442307 28.2356265,20.2323723 28.4241477,20.1183171 L28.5097401,20.065524 L28.5924817,20.0124421 C29.2835992,19.5600825 29.663089,19.0789045 29.663089,18.6325502 C29.663089,18.1949479 29.2983352,17.7238742 28.6328885,17.2793426 L28.5515956,17.2261301 C28.5240196,17.2084376 28.4959666,17.1907914 28.4674406,17.1731954 L28.3804484,17.1205616 L28.2906431,17.0682517 L28.2906431,17.0682517 L28.1980497,17.0162888 C28.1353968,16.9817677 28.0709014,16.9474932 28.0045963,16.9134962 L27.9037856,16.8627126 C27.886759,16.8542846 27.8696204,16.8458749 27.8523701,16.837484 L27.7475339,16.7873677 C27.7298394,16.7790539 27.7120344,16.7707597 27.6941194,16.7624858 L27.585313,16.7130888 C27.5669599,16.7048977 27.5484977,16.6967277 27.5299272,16.6885794 L27.4172059,16.6399535 C27.2841884,16.5835355 27.1459052,16.5282258 27.0025318,16.4741891 C25.8782919,16.0571955 24.5827182,15.7466953 23.1737019,15.5596627 L23.1457914,15.5560153 Z" id="Combined-Shape"></path>
                </g>
                <path d="M47.7,17.036 L47.7,8.162 L54.84,17.036 L56.234,17.036 L56.234,5.136 L54.534,5.136 L54.534,14.01 L47.394,5.136 L46,5.136 L46,17.036 L47.7,17.036 Z M63.578,17.138 C65.074,17.138 66.315,16.628 67.131,15.676 L66.23,14.622 C65.567,15.353 64.683,15.71 63.629,15.71 C61.844,15.71 60.569,14.656 60.365,13.075 L67.675,13.075 C67.692,12.922 67.709,12.718 67.709,12.582 C67.709,9.811 65.856,7.941 63.255,7.941 C60.654,7.941 58.733,9.862 58.733,12.531 C58.733,15.217 60.671,17.138 63.578,17.138 Z M66.145,11.902 L60.365,11.902 C60.535,10.372 61.691,9.318 63.255,9.318 C64.836,9.318 65.975,10.389 66.145,11.902 Z M73.438,17.036 L76.073,10.202 L78.674,17.036 L80.238,17.036 L83.604,8.026 L82.142,8.026 L79.456,15.234 L76.787,8.026 L75.41,8.026 L72.69,15.2 L70.072,8.026 L68.525,8.026 L71.874,17.036 L73.438,17.036 Z M88.959,17.172 C92.104,17.172 93.566,15.608 93.566,13.789 C93.566,9.42 86.358,11.239 86.358,8.332 C86.358,7.295 87.225,6.445 89.248,6.445 C90.302,6.445 91.475,6.751 92.512,7.414 L93.073,6.054 C92.087,5.374 90.642,5 89.248,5 C86.12,5 84.692,6.564 84.692,8.4 C84.692,12.82 91.9,10.984 91.9,13.891 C91.9,14.928 91.016,15.727 88.959,15.727 C87.429,15.727 85.916,15.149 85.032,14.35 L84.403,15.676 C85.355,16.56 87.14,17.172 88.959,17.172 Z M99.278,17.036 L101.913,10.202 L104.514,17.036 L106.078,17.036 L109.444,8.026 L107.982,8.026 L105.296,15.234 L102.627,8.026 L101.25,8.026 L98.53,15.2 L95.912,8.026 L94.365,8.026 L97.714,17.036 L99.278,17.036 Z M113.728,17.138 C115.139,17.138 116.142,16.662 116.686,15.846 L116.686,17.036 L118.233,17.036 L118.233,11.596 C118.233,9.131 116.839,7.941 114.374,7.941 C112.929,7.941 111.586,8.349 110.651,9.097 L111.331,10.321 C112.028,9.726 113.116,9.352 114.187,9.352 C115.802,9.352 116.601,10.151 116.601,11.528 L116.601,11.851 L114.017,11.851 C111.331,11.851 110.396,13.041 110.396,14.486 C110.396,16.05 111.688,17.138 113.728,17.138 Z M114,15.88 C112.759,15.88 112.011,15.319 112.011,14.418 C112.011,13.653 112.47,13.024 114.085,13.024 L116.601,13.024 L116.601,14.282 C116.193,15.319 115.224,15.88 114,15.88 Z M122.891,20.334 L122.891,15.676 C123.639,16.645 124.761,17.138 126.036,17.138 C128.671,17.138 130.592,15.302 130.592,12.531 C130.592,9.777 128.671,7.941 126.036,7.941 C124.71,7.941 123.554,8.451 122.823,9.454 L122.823,8.026 L121.259,8.026 L121.259,20.334 L122.891,20.334 Z M125.9,15.71 C124.183,15.71 122.874,14.452 122.874,12.531 C122.874,10.627 124.183,9.369 125.9,9.369 C127.634,9.369 128.943,10.627 128.943,12.531 C128.943,14.452 127.634,15.71 125.9,15.71 Z" id="NewSwapmining" fill="#000000" fill-rule="nonzero"></path>
                <path d="M49.8636096,25.2974138 C48.3835979,25.2974138 47.2774838,25.9924569 46.7477954,27.1724138 L46.7477954,25.362069 L46,25.362069 L46,33.799569 L46.7789536,33.799569 L46.7789536,29.3060345 C46.7789536,27.3017241 47.9162257,26.0247845 49.7545561,26.0247845 C51.3436214,26.0247845 52.2939447,27.0269397 52.2939447,28.9342672 L52.2939447,33.799569 L53.0728983,33.799569 L53.0728983,29.3060345 C53.0728983,27.3017241 54.2101705,26.0247845 56.0485009,26.0247845 C57.6375661,26.0247845 58.5878895,27.0269397 58.5878895,28.9342672 L58.5878895,33.799569 L59.366843,33.799569 L59.366843,28.8696121 C59.366843,26.5096983 58.0893592,25.2974138 56.1263962,25.2974138 C54.627838,25.2974138 53.4825466,26.0304656 52.9193046,27.1614599 L52.8392122,27.3330415 L52.7725777,27.1467989 C52.2997383,25.9278384 51.2583074,25.2974138 49.8636096,25.2974138 Z M62.9656085,23.3092672 C63.3239271,23.3092672 63.6043504,23.018319 63.6043504,22.6465517 C63.6043504,22.2909483 63.3239271,22 62.9656085,22 C62.6072898,22 62.3268665,22.3071121 62.3268665,22.6627155 C62.3268665,23.018319 62.6072898,23.3092672 62.9656085,23.3092672 Z M63.3550852,33.799569 L63.3550852,25.362069 L62.5761317,25.362069 L62.5761317,33.799569 L63.3550852,33.799569 Z M67.4212228,33.799569 L67.4212228,29.3060345 C67.4212228,27.3017241 68.5896531,26.0247845 70.5058789,26.0247845 C72.1572604,26.0247845 73.1387419,27.0269397 73.1387419,28.9342672 L73.1387419,33.799569 L73.9176955,33.799569 L73.9176955,28.8696121 C73.9176955,26.5096983 72.5934744,25.2974138 70.6149324,25.2974138 C69.0726044,25.2974138 67.9353322,26.0086207 67.3900647,27.1885776 L67.3900647,25.362069 L66.6422693,25.362069 L66.6422693,33.799569 L67.4212228,33.799569 Z M77.5164609,23.3092672 C77.8747795,23.3092672 78.1552028,23.018319 78.1552028,22.6465517 C78.1552028,22.2909483 77.8747795,22 77.5164609,22 C77.1581423,22 76.877719,22.3071121 76.877719,22.6627155 C76.877719,23.018319 77.1581423,23.3092672 77.5164609,23.3092672 Z M77.9059377,33.799569 L77.9059377,25.362069 L77.1269841,25.362069 L77.1269841,33.799569 L77.9059377,33.799569 Z M81.9720752,33.799569 L81.9720752,29.3060345 C81.9720752,27.3017241 83.1405056,26.0247845 85.0567313,26.0247845 C86.7081129,26.0247845 87.6895944,27.0269397 87.6895944,28.9342672 L87.6895944,33.799569 L88.4685479,33.799569 L88.4685479,28.8696121 C88.4685479,26.5096983 87.1443269,25.2974138 85.1657848,25.2974138 C83.6234568,25.2974138 82.4861846,26.0086207 81.9409171,27.1885776 L81.9409171,25.362069 L81.1931217,25.362069 L81.1931217,33.799569 L81.9720752,33.799569 Z M95.058495,37 C97.675779,37 99,35.7230603 99,32.8943966 L99,25.362069 L98.2522046,25.362069 L98.2522046,27.2693966 C97.5978836,26.0086207 96.3359788,25.2974138 94.840388,25.2974138 C92.5346855,25.2974138 90.7898295,26.9784483 90.7898295,29.3868534 C90.7898295,31.7952586 92.5346855,33.4924569 94.840388,33.4924569 C96.3048207,33.4924569 97.5511464,32.7974138 98.2210464,31.5689655 L98.2210464,32.9913793 C98.2210464,35.2381466 97.2084068,36.2726293 95.0429159,36.2726293 C93.734274,36.2726293 92.5658436,35.8200431 91.7557319,35.044181 L91.335097,35.6584052 C92.1607878,36.5150862 93.5784832,37 95.058495,37 Z M94.9027043,32.7650862 C92.9864785,32.7650862 91.5843621,31.375 91.5843621,29.3868534 C91.5843621,27.3987069 92.9864785,26.0247845 94.9027043,26.0247845 C96.8345091,26.0247845 98.2366255,27.3987069 98.2366255,29.3868534 C98.2366255,31.375 96.8345091,32.7650862 94.9027043,32.7650862 Z" id="mining" fill="#000000" fill-rule="nonzero"></path>
            </g>
        </g>
    </g>
</svg>