<?xml version="1.0" encoding="UTF-8"?>
<svg width="160px" height="46px" viewBox="0 0 160 46" version="1.1" xmlns="http://www.w3.org/2000/svg" xmlns:xlink="http://www.w3.org/1999/xlink">
    <title>logo_newswapmining_regular</title>
    <g id="Page-1" stroke="none" stroke-width="1" fill="none" fill-rule="evenodd">
        <g id="icons" transform="translate(-272.000000, -428.000000)">
            <g id="Group-11" transform="translate(272.000000, 428.000000)">
                <rect id="Rectangle" x="0" y="0" width="160" height="46"></rect>
                <g id="Group-3-Copy" fill="#000000" fill-rule="nonzero">
                    <path d="M0,22.671 L0,22.6217105 C0,34.446781 9.65485879,44.0328947 21.5647306,44.0328947 C24.8398034,44.0328947 27.9443554,43.3080078 30.7245133,42.011012 C31.3043124,42.7405497 31.9771818,43.3946833 32.7249428,43.9556012 C29.81075,45.2689142 26.5738345,46 23.1649404,46 C10.3712971,46 0,35.7025492 0,23 L0,22.671 Z M39.395792,26.8565814 C44.1429413,26.8565814 48,30.6861768 48,35.3995253 C48,40.1128736 44.1429413,43.942469 39.395792,43.942469 C34.6486427,43.942469 30.7915839,40.1128736 30.7915839,35.3995253 C30.7915839,30.6861769 34.6486428,26.8565814 39.395792,26.8565814 Z M21.3361293,2.72368421 C28.5019142,2.72368421 34.7791622,6.50087591 38.2583766,12.1593588 L38.447,12.474 L38.2451538,12.1728622 C35.0756938,7.56442773 29.74281,4.53947369 23.6983437,4.53947369 C13.9768581,4.53947369 6.09603695,12.3641813 6.09603695,22.0164474 C6.09603695,31.6687134 13.9768581,39.493421 23.6983437,39.493421 C25.5202418,39.493421 27.2774916,39.2185994 28.9303353,38.7084306 C29.1116384,39.2521765 29.3354522,39.7771073 29.5975979,40.2791273 C27.0829682,41.426222 24.2847739,42.0657895 21.3361293,42.0657895 C10.3941975,42.0657895 1.52400924,33.2587593 1.52400924,22.3947369 C1.52400924,11.5307145 10.3941975,2.72368421 21.3361293,2.72368421 Z M38.2079061,30.6313566 L38.1297844,30.6965575 L37.5024829,31.3225316 C37.3009608,31.5237342 37.2785695,31.8349807 37.4353089,32.0606375 L37.5024829,32.1408647 L38.7115485,33.3462224 C38.8883952,33.5227656 38.9680673,33.7734573 38.9252957,34.0187871 C38.9071736,34.132611 38.8618685,34.2438402 38.7909486,34.3417712 L38.7115485,34.434873 L34.9119601,38.2253146 C34.7161057,38.4208774 34.6068677,38.6858849 34.6083729,38.9616495 C34.6100075,39.237414 34.7222557,39.5011789 34.9203241,39.6945316 C34.9958828,39.7638481 35.1064976,39.7722618 35.1905075,39.7217474 L35.2372275,39.6843832 L39.6055693,35.3265517 C39.8884938,35.0427932 40.344325,35.0246601 40.6492131,35.2850353 C40.6582124,35.2913261 40.6664731,35.2985984 40.6738405,35.3067161 C41.2940511,35.8107267 41.8874576,36.3463948 42.4516594,36.9115532 C42.9573698,37.4161681 43.4410679,37.9420627 43.9014229,38.4877901 C43.2197552,36.0097261 41.6812402,33.3845097 39.3950748,31.1038789 C39.1590236,30.8686197 39.1776103,30.8986037 38.9350537,30.679951 C38.731124,30.493387 38.4276511,30.4784487 38.2079061,30.6313566 Z M30.0864006,10.7407234 L30.7017158,12.3882411 L30.5880196,12.4302306 C30.5227373,12.4543402 30.4587744,12.4788053 30.3961174,12.5036428 L30.2725413,12.5538197 C28.6479714,13.2296012 27.9458147,14.1783508 27.9123954,15.7232312 L27.9114552,15.7814443 L27.9111014,16.9944806 L27.9716083,17.0014795 C29.8166679,17.2185708 31.5028021,17.5981413 32.9476331,18.1197518 L33.0823765,18.1690683 L33.2117906,18.2177267 C33.2680099,18.2388303 33.3237252,18.260109 33.3789342,18.2815609 L33.5430398,18.3464344 C33.6514277,18.3900275 33.757781,18.4343061 33.8620809,18.4792558 L34.0169884,18.5471817 C34.0936699,18.5813945 34.1691911,18.6159807 34.2435442,18.6509341 L34.3906906,18.7213287 C36.4531361,19.7254709 37.5736677,21.02113 37.5736677,22.4686635 C37.5736677,24.0013459 36.3174315,25.363761 34.016806,26.3902134 L33.8618861,26.458144 C33.6532693,26.5480497 33.436438,26.6352718 33.2115404,26.7196938 C31.7263097,27.2735134 30.0111242,27.6786961 28.1537812,27.9131351 L27.9792415,27.9346128 L27.9111014,27.9424806 L27.9111349,29.0961913 C27.9111349,31.49884 26.7238104,33.1344814 24.3035884,34.0721839 L24.229871,34.1003855 L24.1546423,34.1284387 L23.9657765,34.1970716 L23.3502864,32.5490858 L23.4639827,32.5070963 C25.313649,31.8239908 26.1040989,30.8555311 26.1396068,29.2140957 L26.1405471,29.1558826 L26.1408656,28.0944244 L25.994035,28.1052896 C25.4385188,28.1437518 24.8829983,28.1677908 24.3274757,28.1774064 L24.0497141,28.1810122 L23.7719523,28.1822141 C23.0817308,28.1822141 22.3773696,28.1599771 21.7115747,28.1168472 L21.4911437,28.1016987 L21.4029114,28.0948556 L21.4030373,29.0961913 C21.4030373,31.4886156 20.1950914,33.130163 17.763003,34.0719398 L17.6889287,34.1002645 L17.6133452,34.1284405 L17.4244725,34.1970716 L16.8089842,32.5490858 L16.9226805,32.5070963 C18.7723469,31.8239908 19.5627967,30.8555311 19.5983047,29.2140957 L19.5992449,29.1558826 L19.5995207,27.9427681 L19.5390917,27.9358474 C17.6940322,27.718756 16.0078981,27.3391856 14.563067,26.8175751 L14.4283236,26.7682586 L14.2155534,26.6880307 L14.0510448,26.6240473 L13.8894886,26.5589501 C11.3549773,25.5195071 9.9370325,24.0669119 9.9370325,22.4686635 C9.9370325,21.1732411 10.8685554,19.9735059 12.5712383,19.0118526 L12.7054729,18.937403 C12.9544208,18.8018045 13.2190216,18.6711403 13.4988078,18.5458256 L13.6529216,18.4780051 C13.8604073,18.3882918 14.0758799,18.3014479 14.2991597,18.2176331 C15.7843904,17.6638135 17.4995759,17.2586308 19.356919,17.0241919 L19.5314587,17.0027141 L19.5995207,16.9946244 L19.5995652,15.8411357 C19.5995652,13.4330748 20.7924061,11.8004092 23.2382228,10.864842 L23.3127221,10.8367047 L23.3887529,10.8087161 L23.5783035,10.7407234 L24.1936183,12.3882411 L24.079922,12.4302306 C22.2302556,13.1133361 21.4398058,14.0817958 21.4042978,15.7232312 L21.4033576,15.7814443 L21.4030373,15.8411357 L21.4029114,16.8428244 L21.5498697,16.8320373 C22.1053859,16.7935752 22.6609063,16.7695362 23.216429,16.7599206 L23.4941905,16.7563147 L23.7719523,16.7551128 C24.4621739,16.7551128 25.166535,16.7773498 25.83233,16.8204797 L26.0527609,16.8356283 L26.1408656,16.8423931 L26.1408675,15.8411357 C26.1408675,13.4143964 27.3520352,11.7701929 29.8211953,10.8372922 L29.8964035,10.8092401 L30.0864006,10.7407234 Z M23.1649404,0 C35.9585837,0 46.3298808,10.2974507 46.3298808,23 C46.3298808,24.2697548 46.2262495,25.5154777 46.0269263,26.7292853 C45.1186864,26.0255494 44.0955583,25.461233 42.9901644,25.0686568 C43.0821694,24.2659578 43.1294614,23.4493176 43.1294614,22.6217105 C43.1294614,10.79664 33.4746026,1.21052632 21.5647306,1.21052632 C13.20879,1.21052632 5.962856,5.92919071 2.38249663,12.8291478 C6.16299855,5.2280421 14.0490538,0 23.1649404,0 Z M23.7719523,18.5157224 C23.0682366,18.5157224 22.3867857,18.5372794 21.7279521,18.5803587 L21.509179,18.5955156 L21.4029114,18.6036181 L21.4029114,26.3336306 L21.4733365,26.3391238 C22.1447386,26.3888643 22.8656857,26.4167206 23.5779557,26.4210178 L23.7719523,26.4216045 C24.4756681,26.4216045 25.1571189,26.4000475 25.8159527,26.3569682 L26.0347257,26.3418113 L26.1408656,26.3334869 L26.1408656,18.6036181 L26.0705682,18.5982031 C25.399166,18.5484627 24.6782189,18.5206064 23.9659489,18.516309 L23.7719523,18.5157224 Z M19.5995207,18.7585806 L19.5786008,18.761434 C17.8480023,18.9900554 16.2561818,19.3691964 14.9494231,19.8657097 L14.8756816,19.8937377 L14.7304697,19.9503432 C14.6346761,19.9883198 14.5409177,20.0267693 14.4492342,20.0656548 L14.3132698,20.1243053 C14.2908701,20.1341333 14.2686012,20.1439874 14.2464639,20.1538671 L14.1152233,20.2134463 C14.0720058,20.2334051 14.0293193,20.2534612 13.9871688,20.2736101 L13.86233,20.3343306 L13.7407367,20.39558 C13.540802,20.4980877 13.3545131,20.6026837 13.182487,20.7087892 L13.0809877,20.7726291 C13.0643581,20.7832977 13.0478723,20.7939803 13.031531,20.8046762 L12.9352219,20.8690075 C12.1629366,21.3956134 11.7405046,21.9515205 11.7405046,22.4686635 C11.7405046,22.9435907 12.0967831,23.4512115 12.7530253,23.9387689 L12.8422969,24.003653 C12.8726433,24.0252384 12.9035773,24.0467794 12.9350939,24.0682716 L13.0313867,24.1325968 C13.0477252,24.1432916 13.0642081,24.1539731 13.0808348,24.1646407 L13.1823157,24.2284737 C13.268313,24.2815205 13.3578744,24.3341894 13.4509228,24.386408 L13.5642496,24.4488495 L13.6808943,24.5108308 L13.6808943,24.5108308 L13.8008272,24.5723243 L13.9240185,24.6333021 C13.965622,24.653539 14.0077637,24.6736853 14.0504386,24.6937364 L14.1800579,24.7535995 C14.2019261,24.7635275 14.2239263,24.7734306 14.246058,24.7833081 L14.3804204,24.8422621 C14.4030754,24.8520352 14.4258606,24.8617815 14.4487753,24.8715006 L14.5878142,24.9294831 L14.7299335,24.9867832 C14.7538751,24.9962748 14.7779438,25.0057368 14.802139,25.0151686 L14.9488235,25.071393 C16.259963,25.5577098 17.764701,25.9240272 19.3994984,26.1515772 L19.5995207,26.1785244 L19.5995207,18.7585806 Z M27.9111014,18.7587244 L27.9111014,26.1785244 L27.9320994,26.1758929 C29.6102554,25.9541995 31.1579169,25.5909706 32.4416995,25.1164305 L32.6350185,25.0435892 L32.7802304,24.9869837 L32.9223894,24.9296688 C32.9458265,24.9200587 32.9691353,24.9104202 32.9923148,24.9007539 L33.129839,24.8424269 L33.2642362,24.7834599 C33.3085107,24.7637006 33.3522593,24.7438393 33.3954769,24.7238806 L33.5235313,24.6637168 C33.7975098,24.5327488 34.0488437,24.3978607 34.2761781,24.2603235 L34.3793925,24.1966613 L34.4791691,24.1326507 C35.3125755,23.5871583 35.7701955,23.0069143 35.7701955,22.4686635 C35.7701955,21.9409666 35.3303454,21.3729071 34.527895,20.8368543 L34.4298653,20.7726863 C34.3966119,20.7513512 34.3627832,20.730072 34.3283843,20.7088532 L34.2234819,20.6453831 C34.1879473,20.6242899 34.1518475,20.6032619 34.1151872,20.5823035 L34.0035305,20.5196424 C33.9279785,20.478014 33.8502046,20.436683 33.7702485,20.3956866 L33.6486827,20.3344475 L33.5866816,20.3040248 L33.5866816,20.3040248 L33.4602615,20.2435905 C33.438924,20.2335649 33.4174533,20.2235632 33.3958498,20.2135858 L33.2646421,20.1540188 C33.2425105,20.1441413 33.2202473,20.1342893 33.1978534,20.1244635 L33.0619247,20.0658263 C32.9015213,19.9977928 32.734768,19.9310958 32.5618766,19.8659339 C31.2061756,19.3630887 29.6438661,18.988662 27.9447581,18.7631227 L27.9111014,18.7587244 Z" id="Combined-Shape"></path>
                </g>
                <path d="M56.516,21.16 L56.516,10.72 L64.916,21.16 L66.556,21.16 L66.556,7.16 L64.556,7.16 L64.556,17.6 L56.156,7.16 L54.516,7.16 L54.516,21.16 L56.516,21.16 Z M75.196,21.28 C76.956,21.28 78.416,20.68 79.376,19.56 L78.316,18.32 C77.536,19.18 76.496,19.6 75.256,19.6 C73.156,19.6 71.656,18.36 71.416,16.5 L80.016,16.5 C80.036,16.32 80.056,16.08 80.056,15.92 C80.056,12.66 77.876,10.46 74.816,10.46 C71.756,10.46 69.496,12.72 69.496,15.86 C69.496,19.02 71.776,21.28 75.196,21.28 Z M78.216,15.12 L71.416,15.12 C71.616,13.32 72.976,12.08 74.816,12.08 C76.676,12.08 78.016,13.34 78.216,15.12 Z M86.796,21.16 L89.896,13.12 L92.956,21.16 L94.796,21.16 L98.756,10.56 L97.036,10.56 L93.876,19.04 L90.736,10.56 L89.116,10.56 L85.916,19 L82.836,10.56 L81.016,10.56 L84.956,21.16 L86.796,21.16 Z M105.056,21.32 C108.756,21.32 110.476,19.48 110.476,17.34 C110.476,12.2 101.996,14.34 101.996,10.92 C101.996,9.7 103.016,8.7 105.396,8.7 C106.636,8.7 108.016,9.06 109.236,9.84 L109.896,8.24 C108.736,7.44 107.036,7 105.396,7 C101.716,7 100.036,8.84 100.036,11 C100.036,16.2 108.516,14.04 108.516,17.46 C108.516,18.68 107.476,19.62 105.056,19.62 C103.256,19.62 101.476,18.94 100.436,18 L99.696,19.56 C100.816,20.6 102.916,21.32 105.056,21.32 Z M117.196,21.16 L120.296,13.12 L123.356,21.16 L125.196,21.16 L129.156,10.56 L127.436,10.56 L124.276,19.04 L121.136,10.56 L119.516,10.56 L116.316,19 L113.236,10.56 L111.416,10.56 L115.356,21.16 L117.196,21.16 Z M134.196,21.28 C135.856,21.28 137.036,20.72 137.676,19.76 L137.676,21.16 L139.496,21.16 L139.496,14.76 C139.496,11.86 137.856,10.46 134.956,10.46 C133.256,10.46 131.676,10.94 130.576,11.82 L131.376,13.26 C132.196,12.56 133.476,12.12 134.736,12.12 C136.636,12.12 137.576,13.06 137.576,14.68 L137.576,15.06 L134.536,15.06 C131.376,15.06 130.276,16.46 130.276,18.16 C130.276,20 131.796,21.28 134.196,21.28 Z M134.516,19.8 C133.056,19.8 132.176,19.14 132.176,18.08 C132.176,17.18 132.716,16.44 134.616,16.44 L137.576,16.44 L137.576,17.92 C137.096,19.14 135.956,19.8 134.516,19.8 Z M144.976,25.04 L144.976,19.56 C145.856,20.7 147.176,21.28 148.676,21.28 C151.776,21.28 154.036,19.12 154.036,15.86 C154.036,12.62 151.776,10.46 148.676,10.46 C147.116,10.46 145.756,11.06 144.896,12.24 L144.896,10.56 L143.056,10.56 L143.056,25.04 L144.976,25.04 Z M148.516,19.6 C146.496,19.6 144.956,18.12 144.956,15.86 C144.956,13.62 146.496,12.14 148.516,12.14 C150.556,12.14 152.096,13.62 152.096,15.86 C152.096,18.12 150.556,19.6 148.516,19.6 Z M55.136,39.16 L55.136,34.744 C55.136,32.824 56.24,31.704 57.952,31.704 C59.488,31.704 60.384,32.616 60.384,34.392 L60.384,39.16 L61.52,39.16 L61.52,34.744 C61.52,32.824 62.608,31.704 64.336,31.704 C65.856,31.704 66.752,32.616 66.752,34.392 L66.752,39.16 L67.888,39.16 L67.888,34.28 C67.888,31.864 66.544,30.68 64.496,30.68 C62.976,30.68 61.776,31.368 61.168,32.456 C60.656,31.272 59.568,30.68 58.176,30.68 C56.768,30.68 55.68,31.272 55.088,32.28 L55.088,30.744 L54,30.744 L54,39.16 L55.136,39.16 Z M71.552,28.904 C72.032,28.904 72.384,28.536 72.384,28.072 C72.384,27.64 72.016,27.288 71.552,27.288 C71.088,27.288 70.72,27.656 70.72,28.088 C70.72,28.536 71.088,28.904 71.552,28.904 Z M72.112,39.16 L72.112,30.744 L70.976,30.744 L70.976,39.16 L72.112,39.16 Z M76.416,39.16 L76.416,34.744 C76.416,32.824 77.552,31.704 79.36,31.704 C80.96,31.704 81.888,32.616 81.888,34.392 L81.888,39.16 L83.024,39.16 L83.024,34.28 C83.024,31.864 81.616,30.68 79.568,30.68 C78.112,30.68 76.976,31.272 76.368,32.296 L76.368,30.744 L75.28,30.744 L75.28,39.16 L76.416,39.16 Z M86.688,28.904 C87.168,28.904 87.52,28.536 87.52,28.072 C87.52,27.64 87.152,27.288 86.688,27.288 C86.224,27.288 85.856,27.656 85.856,28.088 C85.856,28.536 86.224,28.904 86.688,28.904 Z M87.248,39.16 L87.248,30.744 L86.112,30.744 L86.112,39.16 L87.248,39.16 Z M91.552,39.16 L91.552,34.744 C91.552,32.824 92.688,31.704 94.496,31.704 C96.096,31.704 97.024,32.616 97.024,34.392 L97.024,39.16 L98.16,39.16 L98.16,34.28 C98.16,31.864 96.752,30.68 94.704,30.68 C93.248,30.68 92.112,31.272 91.504,32.296 L91.504,30.744 L90.416,30.744 L90.416,39.16 L91.552,39.16 Z M104.832,42.344 C107.616,42.344 109.04,41.032 109.04,38.136 L109.04,30.744 L107.952,30.744 L107.952,32.36 C107.248,31.256 106.032,30.68 104.624,30.68 C102.224,30.68 100.4,32.328 100.4,34.744 C100.4,37.16 102.224,38.84 104.624,38.84 C106,38.84 107.2,38.28 107.904,37.208 L107.904,38.28 C107.904,40.36 106.928,41.336 104.8,41.336 C103.504,41.336 102.288,40.904 101.488,40.184 L100.912,41.048 C101.792,41.88 103.296,42.344 104.832,42.344 Z M104.736,37.832 C102.88,37.832 101.552,36.568 101.552,34.744 C101.552,32.92 102.88,31.672 104.736,31.672 C106.592,31.672 107.936,32.92 107.936,34.744 C107.936,36.568 106.592,37.832 104.736,37.832 Z" id="NewSwapmining" fill="#000000" fill-rule="nonzero"></path>
            </g>
        </g>
    </g>
</svg>