<?xml version="1.0" encoding="UTF-8"?>
<svg width="80px" height="80px" viewBox="0 0 80 80" version="1.1" xmlns="http://www.w3.org/2000/svg" xmlns:xlink="http://www.w3.org/1999/xlink">
    <title>icons</title>
    <g id="Page-1" stroke="none" stroke-width="1" fill="none" fill-rule="evenodd">
        <g id="icons" transform="translate(-35.000000, -422.000000)">
            <rect fill="#F9FEFC" x="0" y="0" width="1104" height="1024"></rect>
            <g id="Group-13" transform="translate(35.000000, 422.000000)">
                <rect id="Rectangle" x="0" y="0" width="80" height="80"></rect>
                <path d="M0.001,39.5283333 L0,39.3640351 C0,59.2438637 16.0914313,75.359649 35.9412177,75.359649 C41.3996723,75.359649 46.5739256,74.1409987 51.2075222,71.9605418 C52.173854,73.1870111 53.295303,74.286714 54.5415713,75.2297063 C49.6845833,77.4375949 44.2897242,78.6666667 38.608234,78.6666667 C17.2854951,78.6666667 0,61.3550103 0,40 C0,39.8953233 0,39.7907437 0.00124439755,39.686263 L0.001,39.5283333 Z M65.6596534,46.4835281 C73.5715688,46.4835281 80,52.9216885 80,60.8455787 C80,68.7694686 73.5715688,75.2076291 65.6596534,75.2076291 C57.7477378,75.2076291 51.3193066,68.7694686 51.3193066,60.8455787 C51.3193066,52.9216888 57.747738,46.4835281 65.6596534,46.4835281 Z M35.5602155,5.9122807 C47.7243566,5.9122807 58.3522469,12.4997072 64.0812926,22.3068772 C58.8453701,14.2738513 49.7903525,8.96491229 39.4972395,8.96491229 C23.2947635,8.96491229 10.1600616,22.1194932 10.1600616,38.3464913 C10.1600616,54.5734891 23.2947635,67.7280702 39.4972395,67.7280702 C42.5337363,67.7280702 45.462486,67.2660511 48.2172255,66.4083761 C48.5193974,67.3224996 48.8924203,68.2049921 49.3293299,69.0489677 C45.1382803,70.9774167 40.4746231,72.0526316 35.5602155,72.0526316 C17.3236625,72.0526316 2.5400154,57.2466098 2.5400154,38.9824562 C2.5400154,20.7183026 17.3236625,5.9122807 35.5602155,5.9122807 Z M63.6459265,52.8544532 L63.5496407,52.9391402 L62.5041382,53.9915024 C62.15535,54.3427659 62.1285201,54.8935351 62.4236486,55.2754918 L62.5041382,55.3672509 L64.5192475,57.3936492 C64.8139921,57.6904466 64.9467789,58.1118993 64.8754928,58.5243377 C64.8432758,58.728451 64.7595117,58.927601 64.6273726,59.0999496 L64.5192475,59.2238445 L58.1866002,65.596181 C57.8601762,65.9249533 57.6781129,66.3704731 57.6806215,66.8340774 C57.6833458,67.2976816 57.8704262,67.7411123 58.2005402,68.0661691 C58.3300694,68.1860307 58.5214117,68.1975707 58.6627362,68.1044016 L58.7287126,68.049108 L66.0092821,60.7228985 C66.480823,60.2458552 67.2405416,60.2153707 67.7486885,60.6531029 C67.7636873,60.6636787 67.7774551,60.6759046 67.7897342,60.6895517 C68.8234184,61.5368738 69.8124294,62.4374173 70.7527657,63.3875386 C71.5956164,64.2358767 72.4017799,65.1199895 73.1690381,66.0374442 C72.0329254,61.8714235 69.4687337,57.4580163 65.658458,53.6239124 C65.2650393,53.2284041 65.2960171,53.278812 64.8917562,52.9112219 C64.5412519,52.5877768 64.0143114,52.5711767 63.6459265,52.8544532 Z M50.144001,19.3902016 L51.1695264,22.1599416 L50.9800326,22.2305326 C50.8712288,22.2710647 50.764624,22.3121944 50.6601957,22.3539503 L50.4542355,22.4383055 C47.7466191,23.5744019 46.5763579,25.1694014 46.520659,27.7665916 L46.519092,27.8644571 L46.5185582,27.9648078 L46.5185023,29.9037645 L46.6193472,29.9155308 C49.6944465,30.2804959 52.5046701,30.9186144 54.9127219,31.7955248 L55.1372941,31.8784336 L55.3529843,31.9602361 C55.4466832,31.9957147 55.539542,32.0314876 55.631557,32.0675517 L55.9050664,32.1766144 C56.0857129,32.2499013 56.2629684,32.3243407 56.4368014,32.3999083 L56.6949807,32.5141026 C56.8227832,32.5716198 56.9486518,32.6297647 57.0725736,32.6885269 L57.3178177,32.8068715 C60.7552268,34.4949945 62.6227794,36.6732041 62.6227794,39.1067386 C62.6227794,41.6834222 60.5290525,43.9738591 56.6946767,45.6994891 L56.4364769,45.8136914 C56.0887822,45.9648372 55.7273966,46.1114714 55.3525674,46.2533983 C52.8771828,47.1844573 50.0185404,47.865634 46.9229686,48.2597633 L46.6320691,48.2958707 L46.5185023,48.3090979 L46.5185582,50.2486694 C46.5185582,54.2879049 44.539684,57.0376788 40.5059807,58.6141063 L40.3831183,58.6615176 L40.2577372,58.7086796 L39.9429608,58.8240624 L38.9171441,56.0535356 L39.1066378,55.9829445 C42.189415,54.8345353 43.5068315,53.2064001 43.5660114,50.4468856 L43.5675784,50.34902 L43.5681124,50.2486694 L43.5681093,48.5645395 L43.3233917,48.5828057 C42.3975313,48.6474667 41.4716638,48.6878802 40.5457928,48.7040455 L40.0828569,48.7101075 L39.6199205,48.712128 C38.4695513,48.712128 37.2956161,48.6747441 36.1859579,48.6022359 L35.8185729,48.5767688 L35.6715189,48.5652645 L35.6717288,50.2486694 C35.6717288,54.2707161 33.6584857,57.0304189 29.6050051,58.6136959 L29.4815478,58.6613142 L29.3555753,58.7086825 L29.0407875,58.8240624 L28.0149737,56.0535356 L28.2044675,55.9829445 C31.2872448,54.8345353 32.6046611,53.2064001 32.6638411,50.4468856 L32.6654082,50.34902 L32.6658679,48.3095812 L32.5651529,48.2979464 C29.4900537,47.9329812 26.6798301,47.2948628 24.2717783,46.4179523 L24.0472059,46.3350435 L23.692589,46.2001676 L23.418408,46.0926013 L23.1491476,45.9831625 C18.9249621,44.2356931 16.5617208,41.7936489 16.5617208,39.1067386 C16.5617208,36.928927 18.1142591,34.9119809 20.9520639,33.2952885 L21.1757882,33.1701267 C21.5907013,32.9421641 22.0317026,32.7224968 22.498013,32.5118227 L22.7548694,32.3978057 C23.1006788,32.2469833 23.4597998,32.1009849 23.8319328,31.9600788 C26.3073173,31.0290198 29.1659598,30.3478431 32.2615316,29.9537139 L32.5524312,29.9176064 L32.6658679,29.9040062 L32.665942,27.9648078 C32.665942,23.9164736 34.6540102,21.1717025 38.7303714,19.5988648 L38.8545368,19.5515616 L38.9812549,19.5045081 L39.2971725,19.3902016 L40.3226971,22.1599416 L40.1332033,22.2305326 C37.050426,23.3789418 35.7330097,25.007077 35.6738297,27.7665916 L35.6722626,27.8644571 L35.6717288,27.9648078 L35.6715189,29.6488062 L35.9164495,29.6306714 C36.8423098,29.5660104 37.7681772,29.5255971 38.6940484,29.5094317 L39.1569842,29.5033696 L39.6199205,29.501349 C40.7702899,29.501349 41.944225,29.538733 43.0538833,29.6112412 L43.4212682,29.6367084 L43.5681093,29.6480812 L43.5681124,27.9648078 C43.5681124,23.8850722 45.5867254,21.1209039 49.7019922,19.5525492 L49.8273392,19.5053892 L50.144001,19.3902016 Z M38.608234,1.33333333 C59.9309728,1.33333333 77.2164679,18.6449897 77.2164679,40 C77.2164679,42.1346603 77.0437492,44.228919 76.7115439,46.269523 C75.1978106,45.0864308 73.4925971,44.1377251 71.650274,43.4777419 C71.8036157,42.1282769 71.8824357,40.7553746 71.8824357,39.3640351 C71.8824357,19.4842064 55.7910044,3.36842105 35.9412177,3.36842105 C22.1747255,3.36842105 10.2159598,11.1199324 4.17901047,22.5026385 L3.986,22.8693333 L4.17870892,22.4859005 C10.5576331,9.93247501 23.5802325,1.33333333 38.608234,1.33333333 Z M39.6199205,32.4612145 C38.447061,32.4612145 37.3113096,32.4974552 36.2132535,32.5698784 L35.8486317,32.5953595 L35.6715189,32.6089812 L35.6715189,45.6043645 L35.7888941,45.6135994 C36.9078977,45.6972211 38.1094762,45.744052 39.2965929,45.7512764 L39.6199205,45.7522626 C40.7927801,45.7522626 41.9285315,45.7160218 43.0265878,45.6435986 L43.3912095,45.6181176 L43.5681093,45.6041229 L43.5681093,32.6089812 L43.450947,32.5998778 C42.3319434,32.5162561 41.1303649,32.4694252 39.9432482,32.4622007 L39.6199205,32.4612145 Z M32.6658679,32.8694979 L32.6310013,32.8742948 C29.7466705,33.2586439 27.0936364,33.8960404 24.9157052,34.7307584 L24.7928026,34.7778779 L24.5507828,34.8730408 C24.3911268,34.9368854 24.2348629,35.0015252 24.082057,35.0668978 L23.8554497,35.1654987 C23.8181168,35.1820212 23.7810021,35.1985875 23.7441066,35.2151968 L23.5253721,35.3153591 C23.453343,35.3489129 23.3821988,35.3826304 23.3119479,35.416504 L23.1038834,35.5185848 L22.9012278,35.6215548 C22.5680034,35.7938866 22.2575219,35.969729 21.9708116,36.1481094 L21.8016462,36.2554344 C21.7739302,36.2733701 21.7464539,36.2913292 21.7192184,36.3093107 L21.5587031,36.4174619 C20.2715609,37.3027703 19.5675077,38.2373388 19.5675077,39.1067386 C19.5675077,39.9051669 20.1613052,40.7585585 21.2550422,41.5782202 L21.4038281,41.6873008 C21.4544055,41.7235891 21.5059621,41.7598031 21.5584898,41.7959348 L21.7189779,41.9040757 C21.7462087,41.9220555 21.7736802,41.9400128 21.8013914,41.9579466 L21.9705262,42.0652601 C22.1138549,42.1544403 22.263124,42.2429851 22.4182046,42.3307728 L22.6070827,42.4357469 C22.6709665,42.470612 22.7357718,42.5053481 22.8014906,42.5399475 L23.0013786,42.6433278 L23.2066975,42.7458412 C23.2760367,42.7798627 23.3462729,42.8137318 23.4173977,42.847441 L23.6334299,42.9480803 L23.74343,42.9980252 L23.74343,42.9980252 L23.9673674,43.0971363 C24.0051257,43.1135664 24.043101,43.1299516 24.0812922,43.1462909 L24.3130236,43.2437687 L24.5498891,43.3400993 C24.5897918,43.3560562 24.6299063,43.3719633 24.6702317,43.3878198 L24.9147058,43.4823418 C27.0999383,44.299918 29.6078351,44.9157559 32.3324973,45.2983036 L32.6658679,45.3436062 L32.6658679,32.8694979 Z M46.5185023,32.8697395 L46.5185023,45.3436062 L46.5534989,45.3391823 C49.3504256,44.9664803 51.9298615,44.3558346 54.0694992,43.5580571 L54.3916975,43.4355992 L54.6337173,43.3404364 L54.870649,43.2440808 C54.9097109,43.2279248 54.9485588,43.211721 54.9871914,43.1954704 L55.2163983,43.0974134 L55.4403936,42.9982804 C55.5141846,42.9650619 55.5870989,42.9316719 55.6591281,42.8981181 L55.8725522,42.7969732 C56.3291829,42.5767951 56.7480729,42.3500267 57.1269634,42.1188047 L57.2989875,42.0117785 L57.4652818,41.9041664 C58.8542925,40.9871067 59.6169926,40.011624 59.6169926,39.1067386 C59.6169926,38.219596 58.8839091,37.2645975 57.5464916,36.3634073 L57.3831088,36.2555305 C57.3276864,36.2196629 57.2713054,36.1838892 57.2139739,36.1482171 L57.0391365,36.0415136 C56.9799122,36.0060526 56.9197458,35.9707011 56.8586454,35.9354668 L56.6725508,35.8301235 C56.5466308,35.7601395 56.4170077,35.6906555 56.2837475,35.621734 L56.0811378,35.5187813 C56.0469176,35.5016954 56.0124723,35.4846466 55.9778026,35.4676359 L55.7671025,35.3660362 L55.6597497,35.3155936 L55.6597497,35.3155936 L55.4410702,35.2154519 L55.3297557,35.1657646 L55.3297557,35.1657646 L55.1032079,35.0671863 C54.8358688,34.952811 54.5579467,34.8406828 54.2697944,34.7311353 C52.0102926,33.8857722 49.4064435,33.2563013 46.5745969,32.8771338 L46.5185023,32.8697395 Z" id="Combined-Shape" fill="#000000" fill-rule="nonzero"></path>
            </g>
        </g>
    </g>
</svg>